RobotoA2-XTSP100.ufo
<glyph name="one" format="2">
  <advance width="1406"/>
  <unicode hex="0031"/>
  <outline>
    <contour>
      <point x="665" y="0" type="line"/>
      <point x="665" y="1245" type="line"/>
      <point x="297" y="1090" type="line"/>
      <point x="297" y="1276" type="line"/>
      <point x="827" y="1476" type="line"/>
      <point x="857" y="1476" type="line"/>
      <point x="857" y="0" type="line"/>
    </contour>
  </outline>
</glyph>
<glyph name="five" format="2">
  <advance width="1406"/>
  <unicode hex="0035"/>
  <outline>
    <contour>
      <point x="225" y="365" type="qcurve" smooth="yes"/>
      <point x="225" y="375" type="line"/>
      <point x="409" y="375" type="line"/>
      <point x="409" y="365" type="line" smooth="yes"/>
      <point x="409" y="255"/>
      <point x="565" y="128"/>
      <point x="695" y="128" type="qcurve" smooth="yes"/>
      <point x="825" y="128"/>
      <point x="991" y="305"/>
      <point x="991" y="465" type="qcurve" smooth="yes"/>
      <point x="991" y="625"/>
      <point x="825" y="793"/>
      <point x="695" y="793" type="qcurve" smooth="yes"/>
      <point x="605" y="793"/>
      <point x="467" y="728"/>
      <point x="407" y="668" type="qcurve"/>
      <point x="275" y="730" type="line"/>
      <point x="349" y="1456" type="line"/>
      <point x="1105" y="1456" type="line"/>
      <point x="1105" y="1286" type="line"/>
      <point x="505" y="1286" type="line"/>
      <point x="461" y="876" type="line"/>
      <point x="511" y="906"/>
      <point x="645" y="952"/>
      <point x="725" y="952" type="qcurve" smooth="yes"/>
      <point x="915" y="952"/>
      <point x="1181" y="695"/>
      <point x="1181" y="465" type="qcurve" smooth="yes"/>
      <point x="1181" y="235"/>
      <point x="905" y="-30"/>
      <point x="695" y="-30" type="qcurve" smooth="yes"/>
      <point x="471" y="-30"/>
      <point x="225" y="195"/>
    </contour>
  </outline>
</glyph>
<glyph name="D" format="2">
  <advance width="1620"/>
  <unicode hex="0044"/>
  <anchor x="755" y="0" name="bottom"/>
  <anchor x="447" y="728" name="center"/>
  <anchor x="755" y="1456" name="top"/>
  <outline>
    <contour>
      <point x="295" y="0" type="line"/>
      <point x="295" y="1456" type="line"/>
      <point x="727" y="1456" type="line" smooth="yes"/>
      <point x="1007" y="1456"/>
      <point x="1380" y="1086"/>
      <point x="1380" y="774" type="qcurve" smooth="yes"/>
      <point x="1380" y="682" type="line" smooth="yes"/>
      <point x="1380" y="370"/>
      <point x="1007" y="0"/>
      <point x="727" y="0" type="qcurve" smooth="yes"/>
    </contour>
    <contour>
      <point x="487" y="158" type="line"/>
      <point x="727" y="158" type="line" smooth="yes"/>
      <point x="937" y="158"/>
      <point x="1186" y="436"/>
      <point x="1186" y="682" type="qcurve" smooth="yes"/>
      <point x="1186" y="774" type="line" smooth="yes"/>
      <point x="1186" y="1020"/>
      <point x="937" y="1298"/>
      <point x="727" y="1298" type="qcurve" smooth="yes"/>
      <point x="487" y="1298" type="line"/>
    </contour>
  </outline>
</glyph>
<glyph name="G" format="2">
  <advance width="1657"/>
  <unicode hex="0047"/>
  <anchor x="856" y="0" name="bottom"/>
  <anchor x="856" y="1456" name="top"/>
  <outline>
    <contour>
      <point x="240" y="682" type="qcurve" smooth="yes"/>
      <point x="240" y="774" type="line" smooth="yes"/>
      <point x="240" y="1110"/>
      <point x="585" y="1486"/>
      <point x="858" y="1486" type="qcurve" smooth="yes"/>
      <point x="1105" y="1486"/>
      <point x="1386" y="1221"/>
      <point x="1402" y="1041" type="qcurve" smooth="yes"/>
      <point x="1403" y="1030" type="line"/>
      <point x="1211" y="1030" type="line"/>
      <point x="1211" y="1040" type="line" smooth="yes"/>
      <point x="1211" y="1140"/>
      <point x="1025" y="1322"/>
      <point x="856" y="1322" type="qcurve" smooth="yes"/>
      <point x="665" y="1322"/>
      <point x="434" y="1030"/>
      <point x="434" y="774" type="qcurve" smooth="yes"/>
      <point x="434" y="682" type="line" smooth="yes"/>
      <point x="434" y="426"/>
      <point x="665" y="134"/>
      <point x="875" y="134" type="qcurve" smooth="yes"/>
      <point x="985" y="134"/>
      <point x="1145" y="180"/>
      <point x="1217" y="230" type="qcurve"/>
      <point x="1217" y="570" type="line"/>
      <point x="855" y="570" type="line"/>
      <point x="855" y="728" type="line"/>
      <point x="1403" y="728" type="line"/>
      <point x="1403" y="160" type="line"/>
      <point x="1335" y="90"/>
      <point x="1065" y="-30"/>
      <point x="875" y="-30" type="qcurve" smooth="yes"/>
      <point x="585" y="-30"/>
      <point x="240" y="346"/>
    </contour>
  </outline>
</glyph>
<glyph name="M" format="2">
  <advance width="2040"/>
  <unicode hex="004D"/>
  <anchor x="1020" y="0" name="bottom"/>
  <anchor x="1020" y="1456" name="top"/>
  <outline>
    <contour>
      <point x="295" y="0" type="line"/>
      <point x="295" y="1456" type="line"/>
      <point x="543" y="1456" type="line"/>
      <point x="975" y="361" type="line" smooth="yes"/>
      <point x="987" y="331"/>
      <point x="1008" y="266"/>
      <point x="1016" y="236" type="qcurve"/>
      <point x="1024" y="236" type="line"/>
      <point x="1032" y="266"/>
      <point x="1053" y="331"/>
      <point x="1065" y="361" type="qcurve" smooth="yes"/>
      <point x="1497" y="1456" type="line"/>
      <point x="1745" y="1456" type="line"/>
      <point x="1745" y="0" type="line"/>
      <point x="1559" y="0" type="line"/>
      <point x="1559" y="1050" type="line" smooth="yes"/>
      <point x="1559" y="1080"/>
      <point x="1561" y="1155"/>
      <point x="1565" y="1185" type="qcurve"/>
      <point x="1557" y="1185" type="line"/>
      <point x="1551" y="1155"/>
      <point x="1527" y="1080"/>
      <point x="1515" y="1050" type="qcurve" smooth="yes"/>
      <point x="1101" y="0" type="line"/>
      <point x="935" y="0" type="line"/>
      <point x="521" y="1050" type="line" smooth="yes"/>
      <point x="509" y="1080"/>
      <point x="485" y="1155"/>
      <point x="479" y="1185" type="qcurve"/>
      <point x="471" y="1185" type="line"/>
      <point x="475" y="1155"/>
      <point x="477" y="1080"/>
      <point x="477" y="1050" type="qcurve" smooth="yes"/>
      <point x="477" y="0" type="line"/>
    </contour>
  </outline>
</glyph>
<glyph name="N" format="2">
  <advance width="1710"/>
  <unicode hex="004E"/>
  <anchor x="855" y="0" name="bottom"/>
  <anchor x="855" y="1456" name="top"/>
  <anchor x="1322" y="0" name="engtail"/>
  <outline>
    <contour>
      <point x="295" y="0" type="line"/>
      <point x="295" y="1456" type="line"/>
      <point x="495" y="1456" type="line"/>
      <point x="1154" y="436" type="line" smooth="yes"/>
      <point x="1174" y="406"/>
      <point x="1209" y="346"/>
      <point x="1221" y="321" type="qcurve"/>
      <point x="1229" y="321" type="line"/>
      <point x="1228" y="351"/>
      <point x="1227" y="426"/>
      <point x="1227" y="456" type="qcurve" smooth="yes"/>
      <point x="1227" y="1456" type="line"/>
      <point x="1415" y="1456" type="line"/>
      <point x="1415" y="0" type="line"/>
      <point x="1215" y="0" type="line"/>
      <point x="556" y="1020" type="line" smooth="yes"/>
      <point x="536" y="1050"/>
      <point x="502" y="1110"/>
      <point x="488" y="1135" type="qcurve"/>
      <point x="481" y="1135" type="line"/>
      <point x="482" y="1105"/>
      <point x="483" y="1030"/>
      <point x="483" y="1000" type="qcurve" smooth="yes"/>
      <point x="483" y="0" type="line"/>
    </contour>
  </outline>
</glyph>
<glyph name="R" format="2">
  <advance width="1500"/>
  <unicode hex="0052"/>
  <anchor x="730" y="0" name="bottom"/>
  <anchor x="730" y="1456" name="top"/>
  <outline>
    <contour>
      <point x="295" y="0" type="line"/>
      <point x="295" y="1456" type="line"/>
      <point x="769" y="1456" type="line" smooth="yes"/>
      <point x="1003" y="1456"/>
      <point x="1257" y="1222"/>
      <point x="1257" y="1028" type="qcurve" smooth="yes"/>
      <point x="1257" y="834"/>
      <point x="1003" y="594"/>
      <point x="769" y="594" type="qcurve" smooth="yes"/>
      <point x="387" y="594" type="line"/>
      <point x="387" y="750" type="line"/>
      <point x="769" y="750" type="line" smooth="yes"/>
      <point x="935" y="750"/>
      <point x="1065" y="912"/>
      <point x="1065" y="1028" type="qcurve" smooth="yes"/>
      <point x="1065" y="1144"/>
      <point x="935" y="1300"/>
      <point x="769" y="1300" type="qcurve" smooth="yes"/>
      <point x="487" y="1300" type="line"/>
      <point x="487" y="0" type="line"/>
    </contour>
    <contour>
      <point x="1121" y="0" type="line"/>
      <point x="765" y="672" type="line"/>
      <point x="955" y="701" type="line"/>
      <point x="1335" y="0" type="line"/>
    </contour>
  </outline>
</glyph>
<glyph name="Y" format="2">
  <advance width="1478"/>
  <unicode hex="0059"/>
  <anchor x="739" y="0" name="bottom"/>
  <anchor x="739" y="1456" name="top"/>
  <anchor x="-50" y="1074" name="tonos"/>
  <outline>
    <contour>
      <point x="643" y="0" type="line"/>
      <point x="643" y="544" type="line"/>
      <point x="140" y="1456" type="line"/>
      <point x="356" y="1456" type="line"/>
      <point x="684" y="840" type="line" smooth="yes"/>
      <point x="700" y="810"/>
      <point x="727" y="760"/>
      <point x="738" y="733" type="qcurve"/>
      <point x="744" y="733" type="line"/>
      <point x="755" y="760"/>
      <point x="782" y="810"/>
      <point x="798" y="840" type="qcurve" smooth="yes"/>
      <point x="1130" y="1456" type="line"/>
      <point x="1338" y="1456" type="line"/>
      <point x="835" y="544" type="line"/>
      <point x="835" y="0" type="line"/>
    </contour>
  </outline>
</glyph>
<glyph name="w" format="2">
  <advance width="1796"/>
  <unicode hex="0077"/>
  <anchor x="898" y="0" name="bottom"/>
  <anchor x="898" y="1052" name="top"/>
  <outline>
    <contour>
      <point x="150" y="1052" type="line"/>
      <point x="330" y="1052" type="line"/>
      <point x="524" y="360" type="line" smooth="yes"/>
      <point x="535" y="320"/>
      <point x="548" y="270"/>
      <point x="556" y="230" type="qcurve"/>
      <point x="562" y="230" type="line"/>
      <point x="570" y="270"/>
      <point x="583" y="320"/>
      <point x="596" y="360" type="qcurve" smooth="yes"/>
      <point x="825" y="1052" type="line"/>
      <point x="981" y="1052" type="line"/>
      <point x="1217" y="360" type="line" smooth="yes"/>
      <point x="1231" y="320"/>
      <point x="1244" y="270"/>
      <point x="1252" y="230" type="qcurve"/>
      <point x="1258" y="230" type="line"/>
      <point x="1266" y="270"/>
      <point x="1277" y="320"/>
      <point x="1288" y="360" type="qcurve" smooth="yes"/>
      <point x="1476" y="1052" type="line"/>
      <point x="1646" y="1052" type="line"/>
      <point x="1321" y="0" type="line"/>
      <point x="1176" y="0" type="line"/>
      <point x="947" y="680" type="line" smooth="yes"/>
      <point x="934" y="720"/>
      <point x="911" y="800"/>
      <point x="901" y="840" type="qcurve"/>
      <point x="895" y="840" type="line"/>
      <point x="885" y="800"/>
      <point x="862" y="720"/>
      <point x="849" y="680" type="qcurve" smooth="yes"/>
      <point x="620" y="0" type="line"/>
      <point x="475" y="0" type="line"/>
    </contour>
  </outline>
</glyph>
<glyph name="x" format="2">
  <advance width="1228"/>
  <unicode hex="0078"/>
  <anchor x="614" y="0" name="bottom"/>
  <anchor x="614" y="1052" name="top"/>
  <anchor x="890" y="0" name="cy_descender"/>
  <outline>
    <contour>
      <point x="145" y="0" type="line"/>
      <point x="545" y="582" type="line"/>
      <point x="556" y="582" type="line"/>
      <point x="853" y="1052" type="line"/>
      <point x="1063" y="1052" type="line"/>
      <point x="683" y="484" type="line"/>
      <point x="672" y="484" type="line"/>
      <point x="355" y="0" type="line"/>
    </contour>
    <contour>
      <point x="165" y="1052" type="line"/>
      <point x="378" y="1052" type="line"/>
      <point x="675" y="582" type="line"/>
      <point x="683" y="582" type="line"/>
      <point x="1083" y="0" type="line"/>
      <point x="870" y="0" type="line"/>
      <point x="553" y="484" type="line"/>
      <point x="545" y="484" type="line"/>
    </contour>
  </outline>
</glyph>
<glyph name="braceright" format="2">
  <advance width="950"/>
  <unicode hex="007D"/>
  <outline>
    <contour>
      <point x="155" y="-312" type="qcurve"/>
      <point x="155" y="-166" type="line"/>
      <point x="303" y="-166"/>
      <point x="442" y="2"/>
      <point x="413" y="123" type="qcurve" smooth="yes"/>
      <point x="363" y="334" type="line" smooth="yes"/>
      <point x="343" y="418"/>
      <point x="415" y="548"/>
      <point x="513" y="574" type="qcurve"/>
      <point x="415" y="600"/>
      <point x="343" y="730"/>
      <point x="363" y="814" type="qcurve" smooth="yes"/>
      <point x="413" y="1025" type="line" smooth="yes"/>
      <point x="442" y="1146"/>
      <point x="303" y="1314"/>
      <point x="155" y="1314" type="qcurve"/>
      <point x="155" y="1460" type="line"/>
      <point x="381" y="1460"/>
      <point x="636" y="1180"/>
      <point x="599" y="1025" type="qcurve" smooth="yes"/>
      <point x="549" y="814" type="line" smooth="yes"/>
      <point x="524" y="707"/>
      <point x="649" y="640"/>
      <point x="761" y="640" type="qcurve"/>
      <point x="761" y="508" type="line"/>
      <point x="649" y="508"/>
      <point x="524" y="441"/>
      <point x="549" y="334" type="qcurve" smooth="yes"/>
      <point x="599" y="123" type="line" smooth="yes"/>
      <point x="636" y="-32"/>
      <point x="381" y="-312"/>
    </contour>
  </outline>
</glyph>
<glyph name="logicalnot" format="2">
  <advance width="1274"/>
  <unicode hex="00AC"/>
  <outline>
    <contour>
      <point x="1053" y="801" type="line"/>
      <point x="1053" y="376" type="line"/>
      <point x="875" y="376" type="line"/>
      <point x="875" y="637" type="line"/>
      <point x="183" y="637" type="line"/>
      <point x="183" y="801" type="line"/>
    </contour>
  </outline>
</glyph>
<glyph name="micro" format="2">
  <advance width="1448"/>
  <unicode hex="00B5"/>
  <outline>
    <contour>
      <point x="367" y="1052" type="line"/>
      <point x="553" y="1052" type="line"/>
      <point x="421" y="371" type="line" smooth="yes"/>
      <point x="396" y="245"/>
      <point x="488" y="136"/>
      <point x="592" y="136" type="qcurve" smooth="yes"/>
      <point x="681" y="136"/>
      <point x="836" y="232"/>
      <point x="889" y="308" type="qcurve"/>
      <point x="1033" y="1052" type="line"/>
      <point x="1219" y="1052" type="line"/>
      <point x="1015" y="0" type="line"/>
      <point x="847" y="0" type="line"/>
      <point x="865" y="135" type="line"/>
      <point x="859" y="135" type="line"/>
      <point x="788" y="63"/>
      <point x="607" y="-20"/>
      <point x="507" y="-20" type="qcurve" smooth="yes"/>
      <point x="461" y="-20"/>
      <point x="386" y="15"/>
      <point x="357" y="42" type="qcurve"/>
      <point x="269" y="-416" type="line"/>
      <point x="83" y="-416" type="line"/>
    </contour>
  </outline>
</glyph>
<glyph name="eth" format="2">
  <advance width="1364"/>
  <unicode hex="00F0"/>
  <outline>
    <contour>
      <point x="339" y="1421" type="qcurve"/>
      <point x="396" y="1581" type="line"/>
      <point x="733" y="1506"/>
      <point x="1154" y="1008"/>
      <point x="1154" y="633" type="qcurve"/>
      <point x="1154" y="535" type="line"/>
      <point x="1154" y="289"/>
      <point x="888" y="-20"/>
      <point x="686" y="-20" type="qcurve" smooth="yes"/>
      <point x="476" y="-20"/>
      <point x="210" y="265"/>
      <point x="210" y="468" type="qcurve" smooth="yes"/>
      <point x="210" y="698"/>
      <point x="465" y="978"/>
      <point x="658" y="978" type="qcurve" smooth="yes"/>
      <point x="827" y="978"/>
      <point x="1058" y="749"/>
      <point x="1058" y="614" type="qcurve"/>
      <point x="989" y="614" type="line"/>
      <point x="989" y="680"/>
      <point x="845" y="826"/>
      <point x="702" y="826" type="qcurve" smooth="yes"/>
      <point x="556" y="826"/>
      <point x="396" y="632"/>
      <point x="396" y="468" type="qcurve" smooth="yes"/>
      <point x="396" y="345"/>
      <point x="549" y="132"/>
      <point x="690" y="132" type="qcurve" smooth="yes"/>
      <point x="818" y="132"/>
      <point x="968" y="363"/>
      <point x="968" y="535" type="qcurve" smooth="yes"/>
      <point x="968" y="635" type="line" smooth="yes"/>
      <point x="968" y="984"/>
      <point x="593" y="1355"/>
    </contour>
    <contour>
      <point x="1062" y="1427" type="line"/>
      <point x="525" y="1061" type="line"/>
      <point x="442" y="1181" type="line"/>
      <point x="979" y="1546" type="line"/>
    </contour>
  </outline>
</glyph>
<glyph name="idotless" format="2">
  <advance width="750"/>
  <unicode hex="0131"/>
  <anchor x="375" y="1052" name="top"/>
  <anchor x="375" y="0" name="bottom"/>
  <anchor x="434" y="0" name="ogonek"/>
  <anchor x="377" y="542" name="yu_dash"/>
  <outline>
    <contour>
      <point x="282" y="0" type="line"/>
      <point x="282" y="1052" type="line"/>
      <point x="468" y="1052" type="line"/>
      <point x="468" y="0" type="line"/>
    </contour>
  </outline>
</glyph>
<glyph name="florin" format="2">
  <advance width="1274"/>
  <unicode hex="0192"/>
  <outline>
    <contour>
      <point x="993" y="882" type="line"/>
      <point x="993" y="740" type="line"/>
      <point x="254" y="740" type="line"/>
      <point x="254" y="882" type="line"/>
    </contour>
    <contour>
      <point x="680" y="111" type="line" smooth="yes"/>
      <point x="680" y="-173"/>
      <point x="474" y="-437"/>
      <point x="228" y="-437" type="qcurve" smooth="yes"/>
      <point x="197" y="-437"/>
      <point x="144" y="-430"/>
      <point x="116" y="-420" type="qcurve"/>
      <point x="130" y="-271" type="line"/>
      <point x="145" y="-277"/>
      <point x="214" y="-284"/>
      <point x="228" y="-284" type="qcurve" smooth="yes"/>
      <point x="349" y="-284"/>
      <point x="495" y="-122"/>
      <point x="495" y="111" type="qcurve" smooth="yes"/>
      <point x="495" y="1126" type="line" smooth="yes"/>
      <point x="495" y="1301"/>
      <point x="676" y="1487"/>
      <point x="833" y="1487" type="qcurve" smooth="yes"/>
      <point x="919" y="1487"/>
      <point x="1048" y="1434"/>
      <point x="1088" y="1404" type="qcurve"/>
      <point x="1007" y="1259" type="line"/>
      <point x="968" y="1290"/>
      <point x="884" y="1320"/>
      <point x="837" y="1320" type="qcurve" smooth="yes"/>
      <point x="767" y="1320"/>
      <point x="680" y="1224"/>
      <point x="680" y="1126" type="qcurve" smooth="yes"/>
    </contour>
  </outline>
</glyph>
<glyph name="Theta" format="2">
  <advance width="1710"/>
  <unicode hex="0398"/>
  <outline>
    <contour>
      <point x="855" y="-30" type="qcurve" smooth="yes"/>
      <point x="585" y="-30"/>
      <point x="240" y="346"/>
      <point x="240" y="682" type="qcurve" smooth="yes"/>
      <point x="240" y="774" type="line" smooth="yes"/>
      <point x="240" y="1110"/>
      <point x="585" y="1486"/>
      <point x="855" y="1486" type="qcurve" smooth="yes"/>
      <point x="1125" y="1486"/>
      <point x="1470" y="1110"/>
      <point x="1470" y="774" type="qcurve" smooth="yes"/>
      <point x="1470" y="682" type="line" smooth="yes"/>
      <point x="1470" y="346"/>
      <point x="1125" y="-30"/>
    </contour>
    <contour>
      <point x="855" y="134" type="qcurve" smooth="yes"/>
      <point x="1045" y="134"/>
      <point x="1276" y="426"/>
      <point x="1276" y="682" type="qcurve" smooth="yes"/>
      <point x="1276" y="774" type="line" smooth="yes"/>
      <point x="1276" y="1030"/>
      <point x="1045" y="1322"/>
      <point x="855" y="1322" type="qcurve" smooth="yes"/>
      <point x="665" y="1322"/>
      <point x="434" y="1030"/>
      <point x="434" y="774" type="qcurve" smooth="yes"/>
      <point x="434" y="682" type="line" smooth="yes"/>
      <point x="434" y="426"/>
      <point x="665" y="134"/>
    </contour>
    <contour>
      <point x="593" y="659" type="line"/>
      <point x="593" y="827" type="line"/>
      <point x="1117" y="827" type="line"/>
      <point x="1117" y="659" type="line"/>
    </contour>
  </outline>
</glyph>
<glyph name="Lambda" format="2">
  <advance width="1490"/>
  <unicode hex="039B"/>
  <outline>
    <contour>
      <point x="125" y="0" type="line"/>
      <point x="659" y="1466" type="line"/>
      <point x="831" y="1466" type="line"/>
      <point x="1365" y="0" type="line"/>
      <point x="1165" y="0" type="line"/>
      <point x="785" y="1100" type="line" smooth="yes"/>
      <point x="774" y="1133"/>
      <point x="755" y="1195"/>
      <point x="748" y="1228" type="qcurve"/>
      <point x="738" y="1228" type="line"/>
      <point x="731" y="1195"/>
      <point x="713" y="1133"/>
      <point x="701" y="1100" type="qcurve" smooth="yes"/>
      <point x="317" y="0" type="line"/>
    </contour>
  </outline>
</glyph>
<glyph name="Pi" format="2">
  <advance width="1688"/>
  <unicode hex="03A0"/>
  <outline>
    <contour>
      <point x="295" y="0" type="line"/>
      <point x="295" y="1456" type="line"/>
      <point x="1393" y="1456" type="line"/>
      <point x="1393" y="0" type="line"/>
      <point x="1201" y="0" type="line"/>
      <point x="1201" y="1298" type="line"/>
      <point x="487" y="1298" type="line"/>
      <point x="487" y="0" type="line"/>
    </contour>
  </outline>
</glyph>
<glyph name="alpha" format="2">
  <advance width="1486"/>
  <unicode hex="03B1"/>
  <anchor x="675" y="1052" name="top"/>
  <outline>
    <contour>
      <point x="650" y="-20" type="qcurve" smooth="yes"/>
      <point x="450" y="-20"/>
      <point x="210" y="280"/>
      <point x="210" y="510" type="qcurve" smooth="yes"/>
      <point x="210" y="542" type="line" smooth="yes"/>
      <point x="210" y="772"/>
      <point x="450" y="1072"/>
      <point x="650" y="1072" type="qcurve" smooth="yes"/>
      <point x="857" y="1072"/>
      <point x="1071" y="776"/>
      <point x="1071" y="531" type="qcurve" smooth="yes"/>
      <point x="1071" y="505" type="line" smooth="yes"/>
      <point x="1071" y="282"/>
      <point x="850" y="-20"/>
    </contour>
    <contour>
      <point x="690" y="132" type="qcurve" smooth="yes"/>
      <point x="831" y="132"/>
      <point x="1004" y="354"/>
      <point x="1004" y="503" type="qcurve" smooth="yes"/>
      <point x="1004" y="531" type="line" smooth="yes"/>
      <point x="1004" y="704"/>
      <point x="826" y="920"/>
      <point x="690" y="920" type="qcurve" smooth="yes"/>
      <point x="540" y="920"/>
      <point x="400" y="702"/>
      <point x="400" y="542" type="qcurve" smooth="yes"/>
      <point x="400" y="510" type="line" smooth="yes"/>
      <point x="400" y="350"/>
      <point x="540" y="132"/>
    </contour>
    <contour>
      <point x="1201" y="-30" type="qcurve" smooth="yes"/>
      <point x="1104" y="-30"/>
      <point x="991" y="53"/>
      <point x="977" y="145" type="qcurve"/>
      <point x="961" y="145" type="line"/>
      <point x="961" y="915" type="line"/>
      <point x="976" y="915" type="line"/>
      <point x="984" y="1052" type="line"/>
      <point x="1147" y="1052" type="line"/>
      <point x="1147" y="262" type="line" smooth="yes"/>
      <point x="1147" y="187"/>
      <point x="1192" y="130"/>
      <point x="1242" y="130" type="qcurve"/>
      <point x="1257" y="130"/>
      <point x="1294" y="137"/>
      <point x="1311" y="144" type="qcurve"/>
      <point x="1311" y="-8" type="line"/>
      <point x="1292" y="-17"/>
      <point x="1235" y="-30"/>
    </contour>
  </outline>
</glyph>
<glyph name="beta" format="2">
  <advance width="1440"/>
  <unicode hex="03B2"/>
  <outline>
    <contour>
      <point x="273" y="-416" type="line"/>
      <point x="273" y="1058" type="line" smooth="yes"/>
      <point x="273" y="1311"/>
      <point x="522" y="1556"/>
      <point x="720" y="1556" type="qcurve" smooth="yes"/>
      <point x="923" y="1556"/>
      <point x="1139" y="1350"/>
      <point x="1139" y="1155" type="qcurve"/>
      <point x="1139" y="1026"/>
      <point x="999" y="859"/>
      <point x="895" y="834" type="qcurve"/>
      <point x="895" y="850" type="line"/>
      <point x="1048" y="830"/>
      <point x="1230" y="630"/>
      <point x="1230" y="463" type="qcurve" smooth="yes"/>
      <point x="1230" y="243"/>
      <point x="960" y="-21"/>
      <point x="771" y="-21" type="qcurve" smooth="yes"/>
      <point x="623" y="-21"/>
      <point x="420" y="147"/>
      <point x="363" y="254" type="qcurve"/>
      <point x="363" y="491" type="line"/>
      <point x="435" y="309"/>
      <point x="613" y="132"/>
      <point x="758" y="132" type="qcurve" smooth="yes"/>
      <point x="893" y="132"/>
      <point x="1041" y="316"/>
      <point x="1041" y="462" type="qcurve" smooth="yes"/>
      <point x="1041" y="610"/>
      <point x="888" y="765"/>
      <point x="695" y="765" type="qcurve" smooth="yes"/>
      <point x="597" y="765" type="line"/>
      <point x="597" y="907" type="line"/>
      <point x="696" y="907" type="line" smooth="yes"/>
      <point x="838" y="907"/>
      <point x="964" y="1037"/>
      <point x="964" y="1156" type="qcurve" smooth="yes"/>
      <point x="964" y="1269"/>
      <point x="854" y="1404"/>
      <point x="720" y="1404" type="qcurve" smooth="yes"/>
      <point x="587" y="1404"/>
      <point x="459" y="1236"/>
      <point x="459" y="1065" type="qcurve" smooth="yes"/>
      <point x="459" y="-416" type="line"/>
    </contour>
  </outline>
</glyph>
<glyph name="gamma" format="2">
  <advance width="1192"/>
  <unicode hex="03B3"/>
  <outline>
    <contour>
      <point x="503" y="-366" type="line"/>
      <point x="503" y="58" type="line"/>
      <point x="125" y="1052" type="line"/>
      <point x="305" y="1052" type="line"/>
      <point x="559" y="350" type="line" smooth="yes"/>
      <point x="573" y="310"/>
      <point x="592" y="240"/>
      <point x="596" y="220" type="qcurve"/>
      <point x="602" y="220" type="line"/>
      <point x="606" y="240"/>
      <point x="625" y="310"/>
      <point x="639" y="350" type="qcurve" smooth="yes"/>
      <point x="891" y="1052" type="line"/>
      <point x="1067" y="1052" type="line"/>
      <point x="689" y="58" type="line"/>
      <point x="689" y="-366" type="line"/>
    </contour>
  </outline>
</glyph>
<glyph name="eta" format="2">
  <advance width="1388"/>
  <unicode hex="03B7"/>
  <anchor x="694" y="0" name="bottom"/>
  <anchor x="720" y="1052" name="top"/>
  <outline>
    <contour>
      <point x="273" y="0" type="line"/>
      <point x="273" y="1052" type="line"/>
      <point x="441" y="1052" type="line"/>
      <point x="459" y="744" type="line"/>
      <point x="459" y="0" type="line"/>
    </contour>
    <contour>
      <point x="366" y="567" type="qcurve"/>
      <point x="366" y="746" type="line"/>
      <point x="437" y="932"/>
      <point x="658" y="1072"/>
      <point x="777" y="1072" type="qcurve" smooth="yes"/>
      <point x="936" y="1072"/>
      <point x="1125" y="891"/>
      <point x="1125" y="679" type="qcurve" smooth="yes"/>
      <point x="1125" y="-416" type="line"/>
      <point x="939" y="-416" type="line"/>
      <point x="939" y="681" type="line" smooth="yes"/>
      <point x="939" y="807"/>
      <point x="826" y="916"/>
      <point x="722" y="916" type="qcurve" smooth="yes"/>
      <point x="631" y="916"/>
      <point x="470" y="800"/>
    </contour>
  </outline>
</glyph>
<glyph name="El" format="2">
  <advance width="1698"/>
  <unicode hex="041B"/>
  <outline>
    <contour>
      <point x="464" y="1456" type="line"/>
      <point x="1403" y="1456" type="line"/>
      <point x="1403" y="0" type="line"/>
      <point x="1211" y="0" type="line"/>
      <point x="1211" y="1298" type="line"/>
      <point x="635" y="1298" type="line"/>
      <point x="593" y="542" type="line" smooth="yes"/>
      <point x="577" y="258"/>
      <point x="438" y="-30"/>
      <point x="244" y="-30" type="qcurve" smooth="yes"/>
      <point x="220" y="-30"/>
      <point x="164" y="-23"/>
      <point x="135" y="-13" type="qcurve"/>
      <point x="135" y="151" type="line"/>
      <point x="159" y="143"/>
      <point x="199" y="138"/>
      <point x="220" y="138" type="qcurve" smooth="yes"/>
      <point x="322" y="138"/>
      <point x="402" y="336"/>
      <point x="415" y="575" type="qcurve" smooth="yes"/>
    </contour>
  </outline>
</glyph>
<glyph name="ve" format="2">
  <advance width="1375"/>
  <unicode hex="0432"/>
  <outline>
    <contour>
      <point x="273" y="0" type="line"/>
      <point x="273" y="1052" type="line"/>
      <point x="727" y="1052" type="line" smooth="yes"/>
      <point x="902" y="1052"/>
      <point x="1103" y="912"/>
      <point x="1103" y="771" type="qcurve" smooth="yes"/>
      <point x="1103" y="682"/>
      <point x="996" y="563"/>
      <point x="907" y="544" type="qcurve"/>
      <point x="907" y="541" type="line"/>
      <point x="1016" y="525"/>
      <point x="1140" y="402"/>
      <point x="1140" y="306" type="qcurve" smooth="yes"/>
      <point x="1140" y="161"/>
      <point x="930" y="0"/>
      <point x="757" y="0" type="qcurve" smooth="yes"/>
    </contour>
    <contour>
      <point x="459" y="145" type="line"/>
      <point x="757" y="145" type="line" smooth="yes"/>
      <point x="858" y="145"/>
      <point x="953" y="234"/>
      <point x="953" y="306" type="qcurve" smooth="yes"/>
      <point x="953" y="377"/>
      <point x="859" y="463"/>
      <point x="757" y="463" type="qcurve" smooth="yes"/>
      <point x="379" y="463" type="line"/>
      <point x="379" y="607" type="line"/>
      <point x="727" y="607" type="line" smooth="yes"/>
      <point x="827" y="607"/>
      <point x="915" y="690"/>
      <point x="915" y="761" type="qcurve" smooth="yes"/>
      <point x="915" y="831"/>
      <point x="827" y="907"/>
      <point x="727" y="907" type="qcurve" smooth="yes"/>
      <point x="459" y="907" type="line"/>
    </contour>
  </outline>
</glyph>
<glyph name="icyr" format="2">
  <advance width="1408"/>
  <unicode hex="0438"/>
  <anchor x="713" y="1052" name="top"/>
  <outline>
    <contour>
      <point x="273" y="0" type="line"/>
      <point x="273" y="1052" type="line"/>
      <point x="456" y="1052" type="line"/>
      <point x="456" y="403" type="line" smooth="yes"/>
      <point x="456" y="373"/>
      <point x="455" y="298"/>
      <point x="454" y="268" type="qcurve"/>
      <point x="464" y="268" type="line"/>
      <point x="478" y="293"/>
      <point x="513" y="352"/>
      <point x="532" y="383" type="qcurve" smooth="yes"/>
      <point x="949" y="1052" type="line"/>
      <point x="1135" y="1052" type="line"/>
      <point x="1135" y="0" type="line"/>
      <point x="952" y="0" type="line"/>
      <point x="952" y="648" type="line" smooth="yes"/>
      <point x="952" y="678"/>
      <point x="955" y="758"/>
      <point x="957" y="788" type="qcurve"/>
      <point x="942" y="788" type="line"/>
      <point x="930" y="763"/>
      <point x="895" y="699"/>
      <point x="876" y="668" type="qcurve" smooth="yes"/>
      <point x="459" y="0" type="line"/>
    </contour>
  </outline>
</glyph>
<glyph name="el" format="2">
  <advance width="1378"/>
  <unicode hex="043B"/>
  <outline>
    <contour>
      <point x="539" y="907" type="line"/>
      <point x="521" y="490" type="line" smooth="yes"/>
      <point x="509" y="217"/>
      <point x="397" y="-22"/>
      <point x="245" y="-22" type="qcurve" smooth="yes"/>
      <point x="211" y="-22"/>
      <point x="154" y="-13"/>
      <point x="135" y="-4" type="qcurve"/>
      <point x="135" y="152" type="line"/>
      <point x="152" y="145"/>
      <point x="189" y="139"/>
      <point x="211" y="139" type="qcurve" smooth="yes"/>
      <point x="290" y="139"/>
      <point x="342" y="301"/>
      <point x="351" y="516" type="qcurve" smooth="yes"/>
      <point x="374" y="1052" type="line"/>
      <point x="1102" y="1052" type="line"/>
      <point x="1102" y="0" type="line"/>
      <point x="916" y="0" type="line"/>
      <point x="916" y="907" type="line"/>
    </contour>
  </outline>
</glyph>
<glyph name="te" format="2">
  <advance width="1156"/>
  <unicode hex="0442"/>
  <anchor x="580" y="0" name="cy_descender"/>
  <outline>
    <contour>
      <point x="155" y="907" type="line"/>
      <point x="155" y="1052" type="line"/>
      <point x="1001" y="1052" type="line"/>
      <point x="1001" y="907" type="line"/>
    </contour>
    <contour>
      <point x="485" y="0" type="line"/>
      <point x="485" y="977" type="line"/>
      <point x="671" y="977" type="line"/>
      <point x="671" y="0" type="line"/>
    </contour>
  </outline>
</glyph>
<glyph name="tse" format="2">
  <advance width="1405"/>
  <unicode hex="0446"/>
  <outline>
    <contour>
      <point x="1092" y="-270" type="line"/>
      <point x="1092" y="0" type="line"/>
      <point x="273" y="0" type="line"/>
      <point x="273" y="1052" type="line"/>
      <point x="459" y="1052" type="line"/>
      <point x="459" y="145" type="line"/>
      <point x="919" y="145" type="line"/>
      <point x="919" y="1052" type="line"/>
      <point x="1105" y="1052" type="line"/>
      <point x="1105" y="145" type="line"/>
      <point x="1260" y="145" type="line"/>
      <point x="1260" y="-270" type="line"/>
    </contour>
  </outline>
</glyph>
<glyph name="ecyr" format="2">
  <advance width="1318"/>
  <unicode hex="044D"/>
  <guideline x="889" y="493" angle="90" identifier="9ss4WcbEUf"/>
  <anchor x="632" y="1052" name="top"/>
  <outline>
    <contour>
      <point x="1108" y="510" type="line" smooth="yes"/>
      <point x="1108" y="260"/>
      <point x="849" y="-30"/>
      <point x="632" y="-30" type="qcurve" smooth="yes"/>
      <point x="417" y="-30"/>
      <point x="194" y="197"/>
      <point x="194" y="337" type="qcurve" smooth="yes"/>
      <point x="194" y="342" type="line"/>
      <point x="374" y="342" type="line"/>
      <point x="374" y="337" type="line" smooth="yes"/>
      <point x="374" y="252"/>
      <point x="497" y="122"/>
      <point x="632" y="122" type="qcurve" smooth="yes"/>
      <point x="772" y="122"/>
      <point x="924" y="337"/>
      <point x="924" y="500" type="qcurve" smooth="yes"/>
      <point x="924" y="564" type="line" smooth="yes"/>
      <point x="924" y="717"/>
      <point x="771" y="930"/>
      <point x="636" y="930" type="qcurve" smooth="yes"/>
      <point x="501" y="930"/>
      <point x="378" y="797"/>
      <point x="378" y="715" type="qcurve" smooth="yes"/>
      <point x="378" y="710" type="line"/>
      <point x="198" y="710" type="line"/>
      <point x="198" y="715" type="line" smooth="yes"/>
      <point x="198" y="855"/>
      <point x="421" y="1082"/>
      <point x="636" y="1082" type="qcurve" smooth="yes"/>
      <point x="851" y="1082"/>
      <point x="1108" y="791"/>
      <point x="1108" y="542" type="qcurve" smooth="yes"/>
    </contour>
    <contour>
      <point x="1014" y="610" type="line"/>
      <point x="1014" y="465" type="line"/>
      <point x="483" y="465" type="line"/>
      <point x="483" y="610" type="line"/>
    </contour>
  </outline>
</glyph>
<glyph name="lje" format="2">
  <advance width="1915"/>
  <unicode hex="0459"/>
  <outline>
    <contour>
      <point x="135" y="-4" type="qcurve"/>
      <point x="135" y="152" type="line"/>
      <point x="152" y="145"/>
      <point x="189" y="139"/>
      <point x="211" y="139" type="qcurve" smooth="yes"/>
      <point x="290" y="139"/>
      <point x="342" y="301"/>
      <point x="351" y="516" type="qcurve" smooth="yes"/>
      <point x="374" y="1052" type="line"/>
      <point x="1066" y="1052" type="line"/>
      <point x="1066" y="145" type="line"/>
      <point x="1308" y="145" type="line" smooth="yes"/>
      <point x="1433" y="145"/>
      <point x="1534" y="260"/>
      <point x="1534" y="348" type="qcurve" smooth="yes"/>
      <point x="1534" y="435"/>
      <point x="1433" y="547"/>
      <point x="1308" y="547" type="qcurve" smooth="yes"/>
      <point x="976" y="547" type="line"/>
      <point x="976" y="692" type="line"/>
      <point x="1308" y="692" type="line" smooth="yes"/>
      <point x="1506" y="692"/>
      <point x="1720" y="506"/>
      <point x="1720" y="348" type="qcurve" smooth="yes"/>
      <point x="1720" y="190"/>
      <point x="1506" y="0"/>
      <point x="1308" y="0" type="qcurve" smooth="yes"/>
      <point x="880" y="0" type="line"/>
      <point x="880" y="907" type="line"/>
      <point x="539" y="907" type="line"/>
      <point x="521" y="490" type="line" smooth="yes"/>
      <point x="509" y="217"/>
      <point x="397" y="-22"/>
      <point x="245" y="-22" type="qcurve" smooth="yes"/>
      <point x="211" y="-22"/>
      <point x="154" y="-13"/>
    </contour>
  </outline>
</glyph>
<glyph name="endash" format="2">
  <advance width="1274"/>
  <unicode hex="2013"/>
  <outline>
    <contour>
      <point x="125" y="532" type="line"/>
      <point x="125" y="700" type="line"/>
      <point x="1149" y="700" type="line"/>
      <point x="1149" y="532" type="line"/>
    </contour>
  </outline>
</glyph>
<glyph name="quotedblbase" format="2">
  <advance width="1080"/>
  <unicode hex="201E"/>
  <outline>
    <contour>
      <point x="443" y="220" type="line"/>
      <point x="443" y="92" type="line" smooth="yes"/>
      <point x="443" y="2"/>
      <point x="352" y="-202"/>
      <point x="270" y="-270" type="qcurve"/>
      <point x="164" y="-197" type="line"/>
      <point x="211" y="-131"/>
      <point x="259" y="8"/>
      <point x="259" y="89" type="qcurve" smooth="yes"/>
      <point x="259" y="220" type="line"/>
    </contour>
    <contour>
      <point x="863" y="220" type="line"/>
      <point x="863" y="92" type="line" smooth="yes"/>
      <point x="863" y="2"/>
      <point x="772" y="-202"/>
      <point x="690" y="-270" type="qcurve"/>
      <point x="584" y="-197" type="line"/>
      <point x="631" y="-131"/>
      <point x="679" y="8"/>
      <point x="679" y="89" type="qcurve" smooth="yes"/>
      <point x="679" y="220" type="line"/>
    </contour>
  </outline>
</glyph>
<glyph name="dagger" format="2">
  <advance width="1257"/>
  <unicode hex="2020"/>
  <outline>
    <contour>
      <point x="197" y="852" type="line"/>
      <point x="197" y="1025" type="line"/>
      <point x="1055" y="1025" type="line"/>
      <point x="1055" y="852" type="line"/>
    </contour>
    <contour>
      <point x="526" y="8" type="line"/>
      <point x="547" y="748" type="line"/>
      <point x="547" y="905" type="line"/>
      <point x="530" y="1508" type="line"/>
      <point x="721" y="1508" type="line"/>
      <point x="704" y="905" type="line"/>
      <point x="704" y="748" type="line"/>
      <point x="725" y="8" type="line"/>
      <point x="721" y="-274" type="line"/>
      <point x="648" y="-415"/>
      <point x="604" y="-416"/>
      <point x="530" y="-274" type="qcurve"/>
    </contour>
  </outline>
</glyph>
<glyph name="daggerdbl" format="2">
  <advance width="1267"/>
  <unicode hex="2021"/>
  <outline>
    <contour>
      <point x="202" y="852" type="line"/>
      <point x="202" y="1025" type="line"/>
      <point x="1060" y="1025" type="line"/>
      <point x="1060" y="852" type="line"/>
    </contour>
    <contour>
      <point x="202" y="33" type="line"/>
      <point x="202" y="206" type="line"/>
      <point x="1060" y="206" type="line"/>
      <point x="1060" y="33" type="line"/>
    </contour>
    <contour>
      <point x="535" y="-451" type="line"/>
      <point x="552" y="152" type="line"/>
      <point x="537" y="536" type="line"/>
      <point x="552" y="905" type="line"/>
      <point x="535" y="1508" type="line"/>
      <point x="726" y="1508" type="line"/>
      <point x="709" y="905" type="line"/>
      <point x="724" y="534" type="line"/>
      <point x="709" y="152" type="line"/>
      <point x="726" y="-451" type="line"/>
    </contour>
  </outline>
</glyph>
<glyph name="foursuperior" format="2">
  <advance width="1001"/>
  <unicode hex="2074"/>
  <outline>
    <contour>
      <point x="560" y="697" type="line"/>
      <point x="560" y="928" type="line"/>
      <point x="560" y="952" type="line"/>
      <point x="560" y="1322" type="line"/>
      <point x="560" y="1322" type="line"/>
      <point x="337" y="1010" type="line"/>
      <point x="633" y="1010" type="line"/>
      <point x="657" y="1010" type="line"/>
      <point x="825" y="1010" type="line"/>
      <point x="825" y="880" type="line"/>
      <point x="179" y="880" type="line"/>
      <point x="179" y="982" type="line"/>
      <point x="557" y="1496" type="line"/>
      <point x="717" y="1496" type="line"/>
      <point x="717" y="697" type="line"/>
    </contour>
  </outline>
</glyph>
<glyph name="coloncurrency" format="2">
  <advance width="1404"/>
  <unicode hex="20A1"/>
  <guideline x="0" y="1570" angle="0" identifier="0DwZ2nfhdf"/>
  <outline>
    <contour>
      <point x="210" y="612" type="qcurve" smooth="yes"/>
      <point x="210" y="844" type="line" smooth="yes"/>
      <point x="210" y="1154"/>
      <point x="512" y="1486"/>
      <point x="746" y="1486" type="qcurve" smooth="yes"/>
      <point x="981" y="1486"/>
      <point x="1248" y="1233"/>
      <point x="1248" y="1040" type="qcurve" smooth="yes"/>
      <point x="1248" y="990" type="line"/>
      <point x="1066" y="990" type="line"/>
      <point x="1066" y="1041" type="line" smooth="yes"/>
      <point x="1066" y="1161"/>
      <point x="909" y="1332"/>
      <point x="746" y="1332" type="qcurve" smooth="yes"/>
      <point x="584" y="1332"/>
      <point x="396" y="1085"/>
      <point x="396" y="844" type="qcurve" smooth="yes"/>
      <point x="396" y="592" type="line" smooth="yes"/>
      <point x="396" y="369"/>
      <point x="594" y="114"/>
      <point x="756" y="114" type="qcurve" smooth="yes"/>
      <point x="919" y="114"/>
      <point x="1071" y="291"/>
      <point x="1071" y="412" type="qcurve" smooth="yes"/>
      <point x="1071" y="466" type="line"/>
      <point x="1258" y="466" type="line"/>
      <point x="1258" y="426" type="line" smooth="yes"/>
      <point x="1258" y="241"/>
      <point x="991" y="-30"/>
      <point x="756" y="-30" type="qcurve" smooth="yes"/>
      <point x="517" y="-30"/>
      <point x="210" y="308"/>
    </contour>
    <contour>
      <point x="683" y="720" type="line"/>
      <point x="587" y="45" type="line"/>
      <point x="593" y="18" type="line"/>
      <point x="573" y="-125" type="line"/>
      <point x="414" y="-125" type="line"/>
      <point x="446" y="101" type="line"/>
      <point x="460" y="127" type="line"/>
      <point x="548" y="741" type="line"/>
    </contour>
    <contour>
      <point x="815" y="1570" type="line"/>
      <point x="794" y="1426" type="line"/>
      <point x="781" y="1405" type="line"/>
      <point x="683" y="720" type="line"/>
      <point x="548" y="741" type="line"/>
      <point x="643" y="1407" type="line"/>
      <point x="636" y="1430" type="line"/>
      <point x="657" y="1570" type="line"/>
    </contour>
    <contour>
      <point x="948" y="674" type="line"/>
      <point x="859" y="40" type="line"/>
      <point x="865" y="15" type="line"/>
      <point x="845" y="-125" type="line"/>
      <point x="686" y="-125" type="line"/>
      <point x="705" y="12" type="line"/>
      <point x="719" y="38" type="line"/>
      <point x="813" y="696" type="line"/>
    </contour>
    <contour>
      <point x="1087" y="1570" type="line"/>
      <point x="1055" y="1374" type="line"/>
      <point x="1042" y="1351" type="line"/>
      <point x="948" y="674" type="line"/>
      <point x="813" y="696" type="line"/>
      <point x="915" y="1411" type="line"/>
      <point x="908" y="1431" type="line"/>
      <point x="929" y="1570" type="line"/>
    </contour>
  </outline>
</glyph>
<glyph name="franc" format="2">
  <advance width="1274"/>
  <unicode hex="20A3"/>
  <outline>
    <contour>
      <point x="305" y="0" type="line"/>
      <point x="305" y="1456" type="line"/>
      <point x="1127" y="1456" type="line"/>
      <point x="1127" y="1298" type="line"/>
      <point x="497" y="1298" type="line"/>
      <point x="497" y="0" type="line"/>
    </contour>
    <contour>
      <point x="145" y="296" type="line"/>
      <point x="145" y="454" type="line"/>
      <point x="850" y="454" type="line"/>
      <point x="850" y="296" type="line"/>
    </contour>
    <contour>
      <point x="407" y="703" type="line"/>
      <point x="407" y="861" type="line"/>
      <point x="1038" y="861" type="line"/>
      <point x="1038" y="703" type="line"/>
    </contour>
  </outline>
</glyph>
<glyph name="hryvnia" format="2">
  <advance width="1274"/>
  <unicode hex="20B4"/>
  <outline>
    <contour>
      <point x="203" y="334" type="qcurve" smooth="yes"/>
      <point x="203" y="458"/>
      <point x="347" y="655"/>
      <point x="507" y="752" type="qcurve" smooth="yes"/>
      <point x="685" y="859" type="line" smooth="yes"/>
      <point x="799" y="928"/>
      <point x="901" y="1054"/>
      <point x="901" y="1146" type="qcurve" smooth="yes"/>
      <point x="901" y="1220"/>
      <point x="777" y="1328"/>
      <point x="661" y="1328" type="qcurve" smooth="yes"/>
      <point x="532" y="1328"/>
      <point x="410" y="1230"/>
      <point x="406" y="1172" type="qcurve" smooth="yes"/>
      <point x="404" y="1146" type="line"/>
      <point x="232" y="1146" type="line"/>
      <point x="233" y="1172" type="line" smooth="yes"/>
      <point x="239" y="1325"/>
      <point x="468" y="1486"/>
      <point x="664" y="1486" type="qcurve" smooth="yes"/>
      <point x="862" y="1486"/>
      <point x="1074" y="1305"/>
      <point x="1074" y="1136" type="qcurve" smooth="yes"/>
      <point x="1074" y="1043"/>
      <point x="927" y="871"/>
      <point x="762" y="772" type="qcurve" smooth="yes"/>
      <point x="566" y="654" type="line" smooth="yes"/>
      <point x="466" y="594"/>
      <point x="377" y="449"/>
      <point x="377" y="348" type="qcurve" smooth="yes"/>
      <point x="377" y="245"/>
      <point x="517" y="128"/>
      <point x="648" y="128" type="qcurve" smooth="yes"/>
      <point x="782" y="128"/>
      <point x="930" y="241"/>
      <point x="937" y="307" type="qcurve" smooth="yes"/>
      <point x="938" y="326" type="line"/>
      <point x="1115" y="326" type="line"/>
      <point x="1114" y="313" type="line" smooth="yes"/>
      <point x="1101" y="143"/>
      <point x="846" y="-30"/>
      <point x="648" y="-30" type="qcurve" smooth="yes"/>
      <point x="434" y="-30"/>
      <point x="203" y="159"/>
    </contour>
    <contour>
      <point x="115" y="831" type="line"/>
      <point x="115" y="976" type="line"/>
      <point x="1158" y="976" type="line"/>
      <point x="1158" y="831" type="line"/>
    </contour>
    <contour>
      <point x="115" y="511" type="line"/>
      <point x="115" y="656" type="line"/>
      <point x="1158" y="656" type="line"/>
      <point x="1158" y="511" type="line"/>
    </contour>
  </outline>
</glyph>
<glyph name="arrowright" format="2">
  <advance width="1973"/>
  <unicode hex="2192"/>
  <guideline x="1094" y="773" angle="90" identifier="xShtOjvBze"/>
  <outline>
    <contour>
      <point x="295" y="607" type="line"/>
      <point x="295" y="779" type="line"/>
      <point x="1319" y="779" type="line"/>
      <point x="1319" y="607" type="line"/>
    </contour>
    <contour>
      <point x="1044" y="249" type="line"/>
      <point x="1009" y="297" type="line"/>
      <point x="1274" y="698" type="line"/>
      <point x="1010" y="1089" type="line"/>
      <point x="1044" y="1135" type="line"/>
      <point x="1678" y="718" type="line"/>
      <point x="1678" y="668" type="line"/>
    </contour>
  </outline>
</glyph>
<glyph name="approxequal" format="2">
  <advance width="1274"/>
  <unicode hex="2248"/>
  <outline>
    <contour>
      <point x="171" y="704" type="qcurve"/>
      <point x="171" y="901" type="line"/>
      <point x="218" y="952"/>
      <point x="350" y="1010"/>
      <point x="415" y="1011" type="qcurve" smooth="yes"/>
      <point x="494" y="1012"/>
      <point x="586" y="969"/>
      <point x="649" y="938" type="qcurve" smooth="yes"/>
      <point x="708" y="908"/>
      <point x="793" y="868"/>
      <point x="867" y="868" type="qcurve" smooth="yes"/>
      <point x="932" y="868"/>
      <point x="1057" y="936"/>
      <point x="1104" y="996" type="qcurve"/>
      <point x="1104" y="799" type="line"/>
      <point x="1057" y="748"/>
      <point x="933" y="690"/>
      <point x="868" y="690" type="qcurve" smooth="yes"/>
      <point x="794" y="690"/>
      <point x="709" y="729"/>
      <point x="650" y="759" type="qcurve" smooth="yes"/>
      <point x="587" y="790"/>
      <point x="494" y="832"/>
      <point x="415" y="832" type="qcurve" smooth="yes"/>
      <point x="350" y="832"/>
      <point x="218" y="764"/>
    </contour>
    <contour>
      <point x="170" y="287" type="qcurve"/>
      <point x="170" y="484" type="line"/>
      <point x="217" y="535"/>
      <point x="349" y="592"/>
      <point x="414" y="593" type="qcurve" smooth="yes"/>
      <point x="493" y="594"/>
      <point x="585" y="551"/>
      <point x="648" y="520" type="qcurve" smooth="yes"/>
      <point x="707" y="490"/>
      <point x="792" y="451"/>
      <point x="866" y="451" type="qcurve" smooth="yes"/>
      <point x="931" y="451"/>
      <point x="1056" y="519"/>
      <point x="1103" y="579" type="qcurve"/>
      <point x="1103" y="381" type="line"/>
      <point x="1056" y="330"/>
      <point x="932" y="272"/>
      <point x="867" y="272" type="qcurve" smooth="yes"/>
      <point x="793" y="272"/>
      <point x="708" y="311"/>
      <point x="649" y="341" type="qcurve" smooth="yes"/>
      <point x="586" y="372"/>
      <point x="493" y="414"/>
      <point x="414" y="414" type="qcurve" smooth="yes"/>
      <point x="349" y="414"/>
      <point x="217" y="347"/>
    </contour>
  </outline>
</glyph>
<glyph name="greaterequal" format="2">
  <advance width="1274"/>
  <unicode hex="2265"/>
  <outline>
    <contour>
      <point x="236" y="253" type="line"/>
      <point x="236" y="456" type="line"/>
      <point x="823" y="679" type="line"/>
      <point x="236" y="902" type="line"/>
      <point x="236" y="1095" type="line"/>
      <point x="1054" y="746" type="line"/>
      <point x="1054" y="602" type="line"/>
    </contour>
    <contour>
      <point x="1097" y="1" type="line"/>
      <point x="187" y="1" type="line"/>
      <point x="187" y="170" type="line"/>
      <point x="1097" y="170" type="line"/>
    </contour>
  </outline>
</glyph>
<glyph name="rightanglebracket" format="2">
  <advance width="950"/>
  <unicode hex="27E9"/>
  <outline>
    <contour>
      <point x="126" y="-218" type="line"/>
      <point x="650" y="591" type="line"/>
      <point x="127" y="1414" type="line"/>
      <point x="239" y="1499" type="line"/>
      <point x="841" y="659" type="line"/>
      <point x="841" y="530" type="line"/>
      <point x="239" y="-304" type="line"/>
    </contour>
  </outline>
</glyph>
<glyph name="diagonalbarO" format="2">
  <advance width="873"/>
  <outline>
    <contour>
      <point x="128" y="-129" type="line"/>
      <point x="180" y="72" type="line"/>
      <point x="199" y="67" type="line"/>
      <point x="389" y="793" type="line"/>
      <point x="507" y="752" type="line"/>
      <point x="322" y="40" type="line"/>
      <point x="341" y="35" type="line"/>
      <point x="298" y="-129" type="line"/>
    </contour>
    <contour>
      <point x="577" y="1598" type="line"/>
      <point x="748" y="1598" type="line"/>
      <point x="698" y="1403" type="line"/>
      <point x="678" y="1407" type="line"/>
      <point x="507" y="752" type="line"/>
      <point x="389" y="793" type="line"/>
      <point x="555" y="1435" type="line"/>
      <point x="534" y="1439" type="line"/>
    </contour>
  </outline>
</glyph>
<glyph name="five.prop" format="2">
  <advance width="1322"/>
  <outline>
    <contour>
      <point x="183" y="365" type="qcurve" smooth="yes"/>
      <point x="183" y="375" type="line"/>
      <point x="367" y="375" type="line"/>
      <point x="367" y="365" type="line" smooth="yes"/>
      <point x="367" y="255"/>
      <point x="523" y="128"/>
      <point x="653" y="128" type="qcurve" smooth="yes"/>
      <point x="783" y="128"/>
      <point x="949" y="305"/>
      <point x="949" y="465" type="qcurve" smooth="yes"/>
      <point x="949" y="625"/>
      <point x="783" y="793"/>
      <point x="653" y="793" type="qcurve" smooth="yes"/>
      <point x="563" y="793"/>
      <point x="425" y="728"/>
      <point x="365" y="668" type="qcurve"/>
      <point x="233" y="730" type="line"/>
      <point x="307" y="1456" type="line"/>
      <point x="1063" y="1456" type="line"/>
      <point x="1063" y="1286" type="line"/>
      <point x="463" y="1286" type="line"/>
      <point x="419" y="876" type="line"/>
      <point x="469" y="906"/>
      <point x="603" y="952"/>
      <point x="683" y="952" type="qcurve" smooth="yes"/>
      <point x="873" y="952"/>
      <point x="1139" y="695"/>
      <point x="1139" y="465" type="qcurve" smooth="yes"/>
      <point x="1139" y="235"/>
      <point x="863" y="-30"/>
      <point x="653" y="-30" type="qcurve" smooth="yes"/>
      <point x="443" y="-30"/>
      <point x="183" y="195"/>
    </contour>
  </outline>
</glyph>
<glyph name="seven.prop" format="2">
  <advance width="1132"/>
  <outline>
    <contour>
      <point x="338" y="0" type="line"/>
      <point x="798" y="1300" type="line"/>
      <point x="122" y="1300" type="line"/>
      <point x="122" y="1456" type="line"/>
      <point x="996" y="1456" type="line"/>
      <point x="996" y="1352" type="line"/>
      <point x="534" y="0" type="line"/>
    </contour>
  </outline>
</glyph>
<glyph name="sha.bgr" format="2">
  <advance width="2014"/>
  <anchor x="1655" y="0" name="cy_descender"/>
  <outline>
    <contour>
      <point x="1741" y="1052" type="line"/>
      <point x="1741" y="0" type="line"/>
      <point x="1573" y="0" type="line"/>
      <point x="1555" y="295" type="line"/>
      <point x="1555" y="1052" type="line"/>
    </contour>
    <contour>
      <point x="909" y="371" type="qcurve" smooth="yes"/>
      <point x="909" y="1052" type="line"/>
      <point x="1095" y="1052" type="line"/>
      <point x="1095" y="371" type="line" smooth="yes"/>
      <point x="1095" y="245"/>
      <point x="1203" y="136"/>
      <point x="1302" y="136" type="qcurve" smooth="yes"/>
      <point x="1393" y="136"/>
      <point x="1541" y="254"/>
      <point x="1644" y="467" type="qcurve"/>
      <point x="1644" y="288" type="line"/>
      <point x="1568" y="110"/>
      <point x="1357" y="-20"/>
      <point x="1247" y="-20" type="qcurve" smooth="yes"/>
      <point x="1097" y="-20"/>
      <point x="909" y="163"/>
    </contour>
    <contour>
      <point x="968" y="229" type="line"/>
      <point x="944" y="136"/>
      <point x="757" y="-20"/>
      <point x="619" y="-20" type="qcurve" smooth="yes"/>
      <point x="447" y="-20"/>
      <point x="263" y="161"/>
      <point x="263" y="373" type="qcurve" smooth="yes"/>
      <point x="263" y="1052" type="line"/>
      <point x="449" y="1052" type="line"/>
      <point x="449" y="371" type="line" smooth="yes"/>
      <point x="449" y="245"/>
      <point x="557" y="136"/>
      <point x="667" y="136" type="qcurve" smooth="yes"/>
      <point x="778" y="136"/>
      <point x="930" y="317"/>
      <point x="968" y="467" type="qcurve"/>
    </contour>
  </outline>
</glyph>
<glyph name="zhe.bgr" format="2">
  <advance width="1780"/>
  <outline>
    <contour>
      <point x="109" y="0" type="line"/>
      <point x="601" y="672" type="line"/>
      <point x="713" y="544" type="line"/>
      <point x="323" y="0" type="line"/>
    </contour>
    <contour>
      <point x="795" y="0" type="line"/>
      <point x="795" y="1536" type="line"/>
      <point x="981" y="1536" type="line"/>
      <point x="981" y="0" type="line"/>
    </contour>
    <contour>
      <point x="1453" y="0" type="line"/>
      <point x="1063" y="544" type="line"/>
      <point x="1179" y="672" type="line"/>
      <point x="1671" y="0" type="line"/>
    </contour>
    <contour>
      <point x="154" y="1052" type="line"/>
      <point x="365" y="1052" type="line"/>
      <point x="880" y="474" type="line"/>
      <point x="880" y="258" type="line"/>
    </contour>
    <contour>
      <point x="1622" y="1052" type="line"/>
      <point x="895" y="257" type="line"/>
      <point x="895" y="472" type="line"/>
      <point x="1411" y="1052" type="line"/>
    </contour>
  </outline>
</glyph>
